<svg width="124" height="124" xmlns="http://www.w3.org/2000/svg">

 <g>
  <title>Layer 1</title>
  <g id="svg_1">
   <path fill="#ffffff" id="svg_2" d="m112,6l-100,0c-6.6,0 -12,5.4 -12,12s5.4,12 12,12l100,0c6.6,0 12,-5.4 12,-12s-5.4,-12 -12,-12z"/>
   <path fill="#ffffff" id="svg_3" d="m112,50l-100,0c-6.6,0 -12,5.4 -12,12c0,6.6 5.4,12 12,12l100,0c6.6,0 12,-5.4 12,-12c0,-6.6 -5.4,-12 -12,-12z"/>
   <path fill="#ffffff" id="svg_4" d="m112,94l-100,0c-6.6,0 -12,5.4 -12,12s5.4,12 12,12l100,0c6.6,0 12,-5.4 12,-12s-5.4,-12 -12,-12z"/>
  </g>
  <g id="svg_5"/>
  <g id="svg_6"/>
  <g id="svg_7"/>
  <g id="svg_8"/>
  <g id="svg_9"/>
  <g id="svg_10"/>
  <g id="svg_11"/>
  <g id="svg_12"/>
  <g id="svg_13"/>
  <g id="svg_14"/>
  <g id="svg_15"/>
  <g id="svg_16"/>
  <g id="svg_17"/>
  <g id="svg_18"/>
  <g id="svg_19"/>
 </g>
</svg>